<?xml version="1.0" standalone="no"?>
<!DOCTYPE svg PUBLIC "-//W3C//DTD SVG 20010904//EN"
 "http://www.w3.org/TR/2001/REC-SVG-20010904/DTD/svg10.dtd">
<svg version="1.0" xmlns="http://www.w3.org/2000/svg"
 width="300.000000pt" height="300.000000pt" viewBox="0 0 300.000000 300.000000"
 preserveAspectRatio="xMidYMid meet">
<metadata>
Created by potrace 1.10, written by Peter Selinger 2001-2011
</metadata>
<g transform="translate(0.000000,300.000000) scale(0.100000,-0.100000)"
fill="#000000" stroke="none">
<path d="M1205 2774 c-412 -72 -769 -338 -947 -705 -155 -319 -175 -672 -57
-1006 94 -266 277 -495 519 -652 154 -100 310 -157 533 -195 l37 -7 0 104 0
104 -55 7 c-121 14 -307 89 -438 177 -82 56 -233 208 -286 289 -122 188 -182
385 -183 600 0 185 34 334 114 495 152 305 451 531 781 587 l67 12 0 103 c0
57 -1 103 -2 102 -2 0 -39 -7 -83 -15z"/>
<path d="M1704 2775 c-3 -6 -4 -51 -2 -100 l3 -88 85 -17 c400 -82 713 -363
834 -747 67 -215 65 -453 -5 -668 -123 -371 -462 -665 -842 -729 l-72 -12 -3
-102 c-1 -56 1 -102 5 -102 4 0 49 7 98 16 395 68 754 334 935 693 147 292
174 654 73 975 -137 436 -524 784 -968 869 -127 25 -136 25 -141 12z"/>
<path d="M1210 2474 c-375 -80 -667 -365 -763 -744 -30 -121 -30 -339 0 -460
75 -296 261 -528 528 -660 90 -44 190 -78 283 -94 l32 -6 0 103 0 102 -71 17
c-269 65 -491 285 -571 564 -32 112 -32 296 0 408 80 279 302 499 571 564 l71
17 0 103 c0 56 -3 102 -7 101 -5 0 -37 -7 -73 -15z"/>
<path d="M1702 2389 l3 -101 75 -19 c157 -40 309 -138 415 -266 69 -84 117
-176 151 -288 22 -77 26 -108 26 -215 0 -107 -4 -138 -26 -215 -34 -112 -82
-204 -151 -288 -106 -128 -258 -226 -415 -266 l-75 -19 -3 -101 -3 -102 38 6
c212 36 392 130 551 287 126 125 211 274 259 457 22 82 26 117 26 241 0 124
-4 159 -26 241 -65 244 -204 442 -412 585 -108 74 -266 138 -393 158 l-43 6 3
-101z"/>
</g>
</svg>
